<svg width="182" height="38" viewBox="0 0 182 38" fill="none" xmlns="http://www.w3.org/2000/svg">
<path d="M30.263 37.789C26.1997 33.0897 21.8713 28.2843 17.278 23.373C12.6847 18.4263 8.09133 13.515 3.498 8.639C3.46267 9.62833 3.42733 10.9533 3.392 12.614C3.35667 14.2747 3.339 16.536 3.339 19.398C3.339 20.14 3.339 21.0587 3.339 22.154C3.37433 23.2493 3.392 24.3977 3.392 25.599C3.42733 26.8003 3.46267 28.0193 3.498 29.256C3.53333 30.4927 3.56867 31.641 3.604 32.701C3.63933 33.761 3.67467 34.6973 3.71 35.51C3.74533 36.2873 3.78067 36.8173 3.816 37.1C3.25067 37.0293 2.63233 36.994 1.961 36.994C1.25433 36.994 0.600667 37.0293 0 37.1C0.0706668 36.7467 0.141333 36.093 0.212 35.139C0.318 34.185 0.406333 33.0543 0.477 31.747C0.547667 30.4043 0.618333 28.9557 0.689 27.401C0.795 25.8463 0.865667 24.2917 0.901 22.737C0.971667 21.1823 1.02467 19.663 1.06 18.179C1.09533 16.695 1.113 15.37 1.113 14.204C1.113 10.812 1.09533 7.897 1.06 5.459C1.06 3.021 1.02467 1.20133 0.954 0H1.802C3.95733 2.332 6.254 4.84067 8.692 7.526C11.1653 10.176 13.6033 12.8083 16.006 15.423C18.444 18.0023 20.7407 20.458 22.896 22.79C25.0867 25.0867 26.9947 27.0477 28.62 28.673V21.465C28.62 17.755 28.5847 14.151 28.514 10.653C28.4787 7.11967 28.3727 3.79833 28.196 0.688997C28.9027 0.865666 29.5033 0.954 29.998 0.954C30.422 0.954 30.9873 0.865666 31.694 0.688997C31.6233 1.46633 31.535 2.63233 31.429 4.187C31.3583 5.74167 31.27 7.40233 31.164 9.169C31.0933 10.9357 31.0227 12.667 30.952 14.363C30.8813 16.059 30.846 17.4193 30.846 18.444C30.846 19.3273 30.846 20.3873 30.846 21.624C30.846 22.8253 30.846 24.0797 30.846 25.387C30.8813 26.6943 30.899 28.0193 30.899 29.362C30.9343 30.6693 30.952 31.906 30.952 33.072C30.9873 34.2027 31.005 35.192 31.005 36.04C31.005 36.8173 31.005 37.4003 31.005 37.789H30.263Z" fill="#FFFEF3"/>
<path d="M53.6 23.903C52.9993 24.115 52.2926 24.2917 51.48 24.433C50.7026 24.5743 49.9076 24.7333 49.095 24.91C48.2823 25.0513 47.4696 25.2457 46.657 25.493C45.8796 25.7403 45.173 26.076 44.537 26.5C43.9363 26.924 43.4416 27.454 43.053 28.09C42.6996 28.726 42.523 29.5387 42.523 30.528C42.523 32.1887 43 33.443 43.954 34.291C44.908 35.139 45.968 35.563 47.134 35.563C48.4766 35.563 49.6956 35.192 50.791 34.45C51.9216 33.708 52.7873 32.8423 53.388 31.853L53.6 23.903ZM40.509 14.469C42.099 13.2677 43.5653 12.455 44.908 12.031C46.2506 11.607 47.6286 11.395 49.042 11.395C50.314 11.395 51.48 11.5893 52.54 11.978C53.6 12.3313 54.501 12.8613 55.243 13.568C55.985 14.2393 56.568 15.0697 56.992 16.059C57.416 17.013 57.628 18.073 57.628 19.239C57.628 21.253 57.5926 23.267 57.522 25.281C57.4513 27.2597 57.416 29.362 57.416 31.588C57.416 32.012 57.416 32.4713 57.416 32.966C57.4513 33.4253 57.5396 33.8493 57.681 34.238C57.8223 34.5913 58.0166 34.8917 58.264 35.139C58.5466 35.3863 58.953 35.51 59.483 35.51C59.6596 35.51 59.8363 35.51 60.013 35.51C60.225 35.4747 60.4193 35.404 60.596 35.298V36.464C60.2073 36.6407 59.7126 36.782 59.112 36.888C58.5466 36.994 57.9106 37.047 57.204 37.047C56.0733 37.047 55.2076 36.7643 54.607 36.199C54.0063 35.5983 53.653 34.8387 53.547 33.92C52.275 35.192 51.0206 36.1283 49.784 36.729C48.5473 37.3297 47.028 37.63 45.226 37.63C44.3426 37.63 43.477 37.5063 42.629 37.259C41.781 37.0117 41.0213 36.6053 40.35 36.04C39.714 35.4747 39.184 34.8033 38.76 34.026C38.3713 33.2133 38.177 32.2947 38.177 31.27C38.177 29.15 38.8306 27.507 40.138 26.341C41.4806 25.175 43.318 24.3977 45.65 24.009C47.558 23.691 49.042 23.426 50.102 23.214C51.1973 22.9667 51.9923 22.7193 52.487 22.472C53.017 22.2247 53.335 21.942 53.441 21.624C53.547 21.2707 53.6 20.829 53.6 20.299C53.6 19.4157 53.494 18.5677 53.282 17.755C53.07 16.9423 52.7343 16.2357 52.275 15.635C51.8156 15.0343 51.215 14.5573 50.473 14.204C49.731 13.8153 48.83 13.621 47.77 13.621C46.3566 13.621 45.0316 13.939 43.795 14.575C42.5936 15.211 41.6926 16.0943 41.092 17.225H40.509V14.469Z" fill="#FFFEF3"/>
<path d="M70.772 4.823C70.666 6.16567 70.5776 7.49067 70.507 8.798C70.4716 10.07 70.4186 11.3597 70.348 12.667C70.7366 12.667 71.461 12.667 72.521 12.667C73.581 12.6317 74.7293 12.5787 75.966 12.508C75.9306 12.614 75.913 12.8083 75.913 13.091V14.204C75.913 14.4513 75.9306 14.628 75.966 14.734C75.5066 14.6987 75.0296 14.681 74.535 14.681C74.0403 14.6457 73.5103 14.628 72.945 14.628H70.348C70.3126 14.7693 70.2596 15.3347 70.189 16.324C70.1536 17.3133 70.1183 18.497 70.083 19.875C70.0476 21.2177 70.0123 22.631 69.977 24.115C69.977 25.599 69.977 26.924 69.977 28.09C69.977 29.0793 69.9946 30.051 70.03 31.005C70.1006 31.959 70.2773 32.8247 70.56 33.602C70.8427 34.344 71.2666 34.9447 71.832 35.404C72.3973 35.8633 73.21 36.093 74.27 36.093C74.5527 36.093 74.9236 36.0577 75.383 35.987C75.8776 35.9163 76.3017 35.828 76.655 35.722V36.994C76.0543 37.1 75.383 37.2237 74.641 37.365C73.9343 37.5417 73.2453 37.63 72.574 37.63C70.348 37.63 68.705 37.0823 67.645 35.987C66.585 34.8917 66.055 33.284 66.055 31.164C66.055 30.21 66.0726 29.1853 66.108 28.09C66.1433 26.9593 66.1786 25.7403 66.214 24.433C66.2846 23.0903 66.3376 21.624 66.373 20.034C66.4083 18.4087 66.426 16.6067 66.426 14.628H64.73C64.4473 14.628 64.147 14.6457 63.829 14.681C63.511 14.681 63.1753 14.6987 62.822 14.734C62.8573 14.522 62.875 14.3277 62.875 14.151C62.9103 13.939 62.928 13.727 62.928 13.515C62.928 13.3383 62.9103 13.1617 62.875 12.985C62.875 12.8083 62.8573 12.6317 62.822 12.455C64.412 12.561 65.578 12.614 66.32 12.614C66.2846 11.9073 66.2493 11.024 66.214 9.964C66.214 8.904 66.1786 7.80867 66.108 6.678L70.507 4.823H70.772Z" fill="#FFFEF3"/>
<path d="M80.17 29.097C80.17 27.2243 80.1876 25.6343 80.223 24.327C80.2936 22.9843 80.329 21.6593 80.329 20.352C80.329 19.1153 80.3113 17.7727 80.276 16.324C80.276 14.8753 80.2583 13.409 80.223 11.925C81.1063 12.1017 81.8483 12.19 82.449 12.19C83.0143 12.19 83.7386 12.1017 84.622 11.925C84.4453 14.045 84.304 16.377 84.198 18.921C84.1273 21.4297 84.092 24.009 84.092 26.659C84.092 28.4963 84.251 29.9097 84.569 30.899C84.887 31.853 85.2756 32.5773 85.735 33.072C86.2296 33.6373 86.848 34.1143 87.59 34.503C88.3673 34.8563 89.2683 35.033 90.293 35.033C91.777 35.033 93.0136 34.715 94.003 34.079C94.9923 33.4077 95.7166 32.595 96.176 31.641C96.4233 31.0403 96.6176 30.528 96.759 30.104C96.9003 29.68 97.0063 29.1147 97.077 28.408C97.183 27.7013 97.236 26.7473 97.236 25.546C97.2713 24.3447 97.289 22.7017 97.289 20.617V16.165C97.289 15.3877 97.2713 14.6457 97.236 13.939C97.236 13.2323 97.2183 12.561 97.183 11.925C97.5716 11.9957 97.9426 12.0663 98.296 12.137C98.6493 12.1723 99.0203 12.19 99.409 12.19C99.7976 12.19 100.169 12.1723 100.522 12.137C100.875 12.0663 101.229 11.9957 101.582 11.925C101.405 14.681 101.299 17.3487 101.264 19.928C101.229 22.472 101.211 25.175 101.211 28.037C101.211 29.627 101.229 31.1817 101.264 32.701C101.299 34.2203 101.352 35.6867 101.423 37.1C100.716 37.0293 100.027 36.994 99.356 36.994C98.6846 36.994 97.9956 37.0293 97.289 37.1C97.3243 36.782 97.342 36.4463 97.342 36.093C97.3773 35.7397 97.395 35.3687 97.395 34.98V32.701H97.289C96.3703 34.397 95.1866 35.6513 93.738 36.464C92.2893 37.2413 90.717 37.63 89.021 37.63C86.265 37.63 84.0919 36.9057 82.502 35.457C80.9473 33.973 80.17 31.853 80.17 29.097Z" fill="#FFFEF3"/>
<path d="M116.457 37.1C114.832 32.9307 113.189 28.7613 111.528 24.592C109.903 20.4227 108.118 16.2003 106.175 11.925C106.634 11.9957 107.076 12.0663 107.5 12.137C107.924 12.1723 108.366 12.19 108.825 12.19C109.214 12.19 109.602 12.1723 109.991 12.137C110.38 12.0663 110.768 11.9957 111.157 11.925C112.252 15.423 113.436 18.868 114.708 22.26C116.015 25.6167 117.464 29.0617 119.054 32.595C119.761 31.1463 120.45 29.5917 121.121 27.931C121.828 26.235 122.517 24.486 123.188 22.684C123.895 20.882 124.566 19.08 125.202 17.278C125.873 15.4407 126.527 13.6563 127.163 11.925C127.799 12.1017 128.347 12.19 128.806 12.19C129.265 12.19 129.813 12.1017 130.449 11.925C128.541 16.2003 126.668 20.4227 124.831 24.592C122.994 28.7613 121.315 32.9307 119.796 37.1C119.266 37.0293 118.718 36.994 118.153 36.994C117.588 36.994 117.022 37.0293 116.457 37.1Z" fill="#FFFEF3"/>
<path d="M144.509 13.091C143.202 13.091 142.089 13.3913 141.17 13.992C140.287 14.5927 139.545 15.3523 138.944 16.271C138.379 17.1543 137.937 18.1437 137.619 19.239C137.336 20.299 137.16 21.306 137.089 22.26C138.184 22.2953 139.315 22.3307 140.481 22.366C141.682 22.4013 142.848 22.419 143.979 22.419C145.145 22.419 146.329 22.4013 147.53 22.366C148.731 22.3307 149.897 22.2953 151.028 22.26C151.028 21.306 150.94 20.299 150.763 19.239C150.622 18.179 150.304 17.1897 149.809 16.271C149.35 15.3523 148.696 14.5927 147.848 13.992C147 13.3913 145.887 13.091 144.509 13.091ZM132.266 25.334C132.266 20.988 133.291 17.5783 135.34 15.105C137.425 12.6317 140.446 11.395 144.403 11.395C146.276 11.395 147.883 11.6953 149.226 12.296C150.604 12.8613 151.752 13.6387 152.671 14.628C153.59 15.582 154.261 16.7127 154.685 18.02C155.144 19.3273 155.374 20.723 155.374 22.207C155.374 22.5603 155.356 22.9137 155.321 23.267C155.321 23.585 155.303 23.9207 155.268 24.274C153.36 24.2387 151.47 24.2033 149.597 24.168C147.724 24.1327 145.834 24.115 143.926 24.115C142.76 24.115 141.594 24.1327 140.428 24.168C139.297 24.2033 138.149 24.2387 136.983 24.274C136.948 24.4507 136.93 24.7157 136.93 25.069V25.758C136.93 27.136 137.124 28.4257 137.513 29.627C137.937 30.8283 138.538 31.8707 139.315 32.754C140.092 33.602 141.046 34.291 142.177 34.821C143.308 35.3157 144.615 35.563 146.099 35.563C146.806 35.563 147.53 35.4747 148.272 35.298C149.014 35.086 149.738 34.821 150.445 34.503C151.152 34.1497 151.805 33.7433 152.406 33.284C153.042 32.8247 153.59 32.33 154.049 31.8L154.314 31.959L153.996 34.556C152.936 35.404 151.611 36.1283 150.021 36.729C148.466 37.3297 146.841 37.63 145.145 37.63C143.237 37.63 141.488 37.3473 139.898 36.782C138.343 36.1813 136.983 35.3333 135.817 34.238C134.686 33.1073 133.803 31.7823 133.167 30.263C132.566 28.7437 132.266 27.1007 132.266 25.334Z" fill="#FFFEF3"/>
<path d="M174.03 23.903C173.429 24.115 172.723 24.2917 171.91 24.433C171.133 24.5743 170.338 24.7333 169.525 24.91C168.712 25.0513 167.9 25.2457 167.087 25.493C166.31 25.7403 165.603 26.076 164.967 26.5C164.366 26.924 163.872 27.454 163.483 28.09C163.13 28.726 162.953 29.5387 162.953 30.528C162.953 32.1887 163.43 33.443 164.384 34.291C165.338 35.139 166.398 35.563 167.564 35.563C168.907 35.563 170.126 35.192 171.221 34.45C172.352 33.708 173.217 32.8423 173.818 31.853L174.03 23.903ZM160.939 14.469C162.529 13.2677 163.995 12.455 165.338 12.031C166.681 11.607 168.059 11.395 169.472 11.395C170.744 11.395 171.91 11.5893 172.97 11.978C174.03 12.3313 174.931 12.8613 175.673 13.568C176.415 14.2393 176.998 15.0697 177.422 16.059C177.846 17.013 178.058 18.073 178.058 19.239C178.058 21.253 178.023 23.267 177.952 25.281C177.881 27.2597 177.846 29.362 177.846 31.588C177.846 32.012 177.846 32.4713 177.846 32.966C177.881 33.4253 177.97 33.8493 178.111 34.238C178.252 34.5913 178.447 34.8917 178.694 35.139C178.977 35.3863 179.383 35.51 179.913 35.51C180.09 35.51 180.266 35.51 180.443 35.51C180.655 35.4747 180.849 35.404 181.026 35.298V36.464C180.637 36.6407 180.143 36.782 179.542 36.888C178.977 36.994 178.341 37.047 177.634 37.047C176.503 37.047 175.638 36.7643 175.037 36.199C174.436 35.5983 174.083 34.8387 173.977 33.92C172.705 35.192 171.451 36.1283 170.214 36.729C168.977 37.3297 167.458 37.63 165.656 37.63C164.773 37.63 163.907 37.5063 163.059 37.259C162.211 37.0117 161.451 36.6053 160.78 36.04C160.144 35.4747 159.614 34.8033 159.19 34.026C158.801 33.2133 158.607 32.2947 158.607 31.27C158.607 29.15 159.261 27.507 160.568 26.341C161.911 25.175 163.748 24.3977 166.08 24.009C167.988 23.691 169.472 23.426 170.532 23.214C171.627 22.9667 172.422 22.7193 172.917 22.472C173.447 22.2247 173.765 21.942 173.871 21.624C173.977 21.2707 174.03 20.829 174.03 20.299C174.03 19.4157 173.924 18.5677 173.712 17.755C173.5 16.9423 173.164 16.2357 172.705 15.635C172.246 15.0343 171.645 14.5573 170.903 14.204C170.161 13.8153 169.26 13.621 168.2 13.621C166.787 13.621 165.462 13.939 164.225 14.575C163.024 15.211 162.123 16.0943 161.522 17.225H160.939V14.469Z" fill="#FFFEF3"/>
</svg>
